<svg width="48" height="48" viewBox="0 0 48 48" xmlns="http://www.w3.org/2000/svg">
<path d="M24 38.9C23.15 40.34 22.31 41.46 21.52 42.26C19.36 44.42 16.49 45.61 13.44 45.61C10.38 45.61 7.51 44.42 5.35 42.26C3.19 40.1 2 37.22 2 34.17C2 31.11 3.19 28.24 5.35 26.08C5.92 25.51 6.68 24.91 7.59 24.3C6.68 23.69 5.92 23.1 5.35 22.52C3.19 20.36 2 17.49 2 14.44C2 11.38 3.19 8.51 5.35 6.35C7.51 4.19 10.38 3 13.44 3C16.49 3 19.36 4.19 21.52 6.35C22.31 7.14 23.15 8.27 24 9.7C24.85 8.27 25.69 7.14 26.48 6.35C28.64 4.19 31.51 3 34.56 3C37.62 3 40.49 4.19 42.65 6.35C44.81 8.51 46 11.38 46 14.44C46 17.49 44.81 20.36 42.65 22.52C42.08 23.1 41.32 23.69 40.41 24.3C41.32 24.91 42.08 25.51 42.65 26.08C44.81 28.24 46 31.11 46 34.17C46 37.22 44.81 40.1 42.65 42.26C40.49 44.42 37.62 45.61 34.56 45.61C31.51 45.61 28.64 44.42 26.48 42.26C25.69 41.46 24.85 40.34 24 38.9Z" fill="#f3ead7"/>
</svg>
