<svg width="66" height="66" viewBox="0 0 66 66" fill="none" xmlns="http://www.w3.org/2000/svg">
<path d="M53.8535 50.5676C49.8373 48.7421 45.456 46.9165 41.4398 44.3608C38.5189 42.5352 38.5189 42.5352 38.1538 46.1863C37.6061 50.3851 37.241 54.5838 36.6934 58.7826C36.5108 59.5128 36.3282 60.243 36.1457 60.9732C35.9631 61.7035 35.4155 62.4337 34.6853 62.4337C33.955 62.4337 33.5899 61.7035 33.2248 61.1558C32.4946 58.9651 31.7644 56.957 31.2167 54.5838C30.6691 51.4804 29.9388 48.377 29.3912 45.2735C28.8435 42.9003 28.8435 42.7178 26.8354 43.8131C22.089 46.0038 17.5251 48.1944 12.7787 50.5676C11.6834 51.1153 10.588 51.663 9.4927 52.0281C8.94504 52.2106 8.21482 52.5757 7.66716 51.8455C7.11949 51.1153 7.11949 50.3851 7.66716 49.6549C8.21482 48.7421 8.94504 47.8293 9.4927 46.9165C11.6834 43.9957 14.4217 41.4399 16.7949 38.519C16.9774 38.1539 17.3426 37.9713 17.5251 37.6062C19.8983 34.6854 19.3507 35.233 17.3426 32.8598C14.6042 29.7564 12.0485 26.653 9.4927 23.367C8.76249 22.4542 7.84971 21.5414 8.57993 20.2635C9.12759 18.9857 10.4055 19.5333 11.5008 19.5333C14.7868 19.5333 17.8902 20.081 21.1762 20.8112C22.6366 21.1763 24.2796 21.3589 25.9226 21.724C27.018 21.9065 27.5656 21.724 27.7482 20.4461C28.2958 16.795 29.5737 13.1439 30.669 9.49281C31.2167 7.84982 31.7644 6.20683 32.312 4.56383C32.4946 3.83361 32.8597 3.28595 33.7725 3.28595C34.3201 3.65106 34.6853 4.38128 34.6853 5.1115C34.8678 6.75449 35.0504 8.39748 35.2329 10.0405C35.7806 13.8741 36.3282 17.8903 36.8759 21.724C37.241 23.7321 37.4236 23.9146 39.4317 23.1844C41.8049 22.4542 43.9955 21.3589 46.1862 20.081C49.1071 18.6205 51.8454 17.1601 54.7663 15.5171C55.3139 15.3346 55.679 14.9695 56.2267 14.7869C56.9569 14.4218 57.6871 14.2392 58.4174 14.7869C59.1476 15.5171 58.7825 16.2473 58.4174 16.9776C57.1395 19.3508 55.4965 21.3589 53.8535 23.5495C51.6628 26.2878 49.2896 29.0262 46.9164 31.5819C45.6385 33.0424 45.6385 33.0424 46.5513 34.6854C49.4722 38.8841 52.3931 42.9003 55.3139 47.0991C55.4965 47.4642 55.679 47.6467 56.0442 48.0119C56.5918 48.7421 57.1395 49.4723 56.5918 50.3851C55.679 51.2978 54.7663 50.7502 53.8535 50.5676Z" fill="#f3ead7"/>
</svg>
